<?xml version="1.0" encoding="UTF-8" ?>
<!DOCTYPE svg PUBLIC "-//W3C//DTD SVG 1.1//EN" "http://www.w3.org/Graphics/SVG/1.1/DTD/svg11.dtd">
<svg width="1073pt" height="932pt" viewBox="0 0 1073 932" version="1.1" xmlns="http://www.w3.org/2000/svg">
<path fill="#ffffff" d=" M 0.00 0.00 L 589.85 0.00 C 589.48 0.40 588.74 1.19 588.37 1.58 C 587.22 1.97 586.17 2.52 585.22 3.24 C 562.14 20.15 538.96 36.91 515.87 53.81 C 514.71 54.54 513.60 55.76 512.09 55.49 C 484.16 55.49 456.24 55.43 428.31 55.52 C 428.43 76.73 428.28 97.96 428.44 119.17 L 428.04 119.70 C 399.93 119.88 371.82 119.69 343.71 119.85 C 343.54 141.19 343.67 162.54 343.68 183.88 L 343.21 184.43 C 323.11 184.28 303.01 184.44 282.92 184.25 C 282.48 184.02 281.62 183.55 281.19 183.31 C 292.54 175.02 303.94 166.76 314.68 157.67 C 323.63 150.37 331.88 142.28 340.27 134.36 C 332.50 136.75 325.12 140.50 317.54 143.49 C 295.95 152.58 274.45 161.87 252.86 170.95 C 251.77 171.28 250.56 172.25 249.42 171.68 C 239.22 156.42 230.89 139.94 224.35 122.80 C 221.75 116.52 220.06 109.86 217.04 103.76 C 212.29 125.90 204.58 147.29 198.45 169.05 C 208.24 182.50 221.00 194.59 236.90 200.30 C 243.37 202.35 250.69 203.26 257.01 200.22 L 258.38 200.55 C 258.37 207.99 258.81 215.57 258.21 222.94 L 257.22 223.49 C 224.08 210.52 190.85 197.73 157.60 185.04 C 160.80 176.49 165.17 168.23 168.78 159.78 C 172.79 151.19 176.58 142.49 180.62 133.92 C 180.49 120.93 174.20 108.13 164.33 99.71 C 161.07 97.24 157.79 94.22 153.77 93.23 C 141.80 112.60 131.10 132.92 123.77 154.52 C 119.35 168.62 115.32 184.11 119.98 198.66 C 123.04 208.08 132.07 214.39 141.60 215.97 C 178.28 221.80 215.10 226.73 251.86 232.10 C 253.95 232.59 256.08 232.85 258.18 233.32 C 258.99 237.46 258.47 241.94 258.42 246.20 C 254.53 246.42 250.62 245.84 246.75 246.41 C 233.92 244.27 221.03 242.24 208.06 240.98 C 190.91 239.06 173.80 236.63 156.61 235.06 C 150.40 259.57 144.31 284.11 138.21 308.66 C 120.74 308.85 103.26 308.52 85.79 308.69 C 85.70 330.30 85.94 351.93 85.72 373.54 C 57.26 373.60 28.79 373.52 0.34 373.58 C 0.23 397.71 0.19 421.85 0.35 445.98 C 39.91 516.56 78.40 587.73 117.31 658.66 C 122.95 668.74 128.22 679.03 134.06 688.98 C 134.51 689.05 135.40 689.20 135.84 689.27 C 439.13 689.20 742.42 689.33 1045.71 689.21 C 933.64 519.93 821.69 350.57 709.67 181.26 C 669.72 120.99 630.00 60.57 589.91 0.40 L 590.95 0.00 L 1073.00 0.00 L 1073.00 742.36 C 1067.81 741.12 1062.21 742.10 1056.87 741.83 C 1050.58 757.20 1043.88 772.41 1038.07 787.97 C 1031.69 772.50 1024.98 757.11 1018.19 741.81 C 1011.15 741.80 1004.11 741.78 997.08 741.82 C 999.54 749.03 1003.32 755.80 1006.33 762.82 C 1014.87 781.63 1023.55 800.37 1032.04 819.20 C 1034.08 819.31 1036.13 819.25 1038.19 819.25 C 1049.95 793.72 1061.04 767.84 1073.00 742.41 L 1073.00 932.00 L 0.00 932.00 L 0.00 0.00 Z" />
<path fill="#231f20" d=" M 589.85 0.00 L 590.95 0.00 L 589.91 0.40 C 630.00 60.57 669.72 120.99 709.67 181.26 C 821.69 350.57 933.64 519.93 1045.71 689.21 C 742.42 689.33 439.13 689.20 135.84 689.27 C 135.40 689.20 134.51 689.05 134.06 688.98 C 144.92 672.33 155.95 655.80 166.92 639.23 C 179.38 620.39 191.78 601.52 204.32 582.75 C 216.42 564.29 228.61 545.88 240.86 527.52 C 253.25 508.48 266.00 489.67 278.35 470.62 C 289.99 453.37 301.27 435.88 312.90 418.62 C 324.64 400.68 336.52 382.83 348.36 364.95 C 358.90 348.93 369.50 332.96 380.07 316.97 C 391.50 299.72 402.89 282.44 414.35 265.20 C 425.49 248.33 436.57 231.41 447.86 214.63 C 457.57 199.60 467.62 184.79 477.39 169.80 C 487.90 154.10 498.17 138.24 508.74 122.57 C 517.60 108.98 526.59 95.47 535.58 81.96 C 547.22 64.16 559.04 46.47 570.75 28.71 C 576.55 19.63 582.95 10.89 588.37 1.58 C 588.74 1.19 589.48 0.40 589.85 0.00 Z" />
<path fill="#a7a9ac" d=" M 585.22 3.24 C 586.17 2.52 587.22 1.97 588.37 1.58 C 582.95 10.89 576.55 19.63 570.75 28.71 C 559.04 46.47 547.22 64.16 535.58 81.96 C 528.28 75.95 520.69 70.25 513.03 64.72 C 488.43 64.73 463.83 64.65 439.24 64.87 C 460.82 83.60 483.13 101.52 504.95 119.98 C 506.08 121.02 507.35 121.88 508.74 122.57 C 498.17 138.24 487.90 154.10 477.39 169.80 C 461.57 156.89 446.56 142.93 430.90 129.81 C 405.61 129.50 380.29 129.74 355.00 129.68 C 385.12 158.19 415.89 186.07 446.20 214.41 C 446.62 214.46 447.45 214.57 447.86 214.63 C 436.57 231.41 425.49 248.33 414.35 265.20 C 392.25 242.09 370.00 219.15 347.94 196.01 C 347.17 195.15 346.23 194.76 345.10 194.84 C 339.06 194.93 333.01 194.61 326.99 195.12 C 308.62 195.22 290.25 195.02 271.88 195.25 C 293.50 220.18 315.76 244.60 337.56 269.39 C 351.80 285.18 365.72 301.28 380.07 316.97 C 369.50 332.96 358.90 348.93 348.36 364.95 C 334.05 346.75 319.49 328.73 304.90 310.75 C 307.47 301.98 309.48 293.03 310.59 283.97 C 311.44 277.88 308.18 272.14 303.82 268.16 C 297.77 262.70 290.25 259.21 282.74 256.26 C 271.12 251.72 258.89 249.12 246.75 246.41 C 250.62 245.84 254.53 246.42 258.42 246.20 C 258.47 241.94 258.99 237.46 258.18 233.32 C 256.08 232.85 253.95 232.59 251.86 232.10 C 259.13 232.68 266.27 234.25 273.51 235.11 C 280.59 235.81 287.58 237.57 294.71 237.61 C 282.10 233.20 269.80 227.96 257.22 223.49 L 258.21 222.94 C 258.81 215.57 258.37 207.99 258.38 200.55 L 257.01 200.22 C 265.53 195.30 273.47 189.39 281.19 183.31 C 281.62 183.55 282.48 184.02 282.92 184.25 C 303.01 184.44 323.11 184.28 343.21 184.43 L 343.68 183.88 C 343.67 162.54 343.54 141.19 343.71 119.85 C 371.82 119.69 399.93 119.88 428.04 119.70 L 428.44 119.17 C 428.28 97.96 428.43 76.73 428.31 55.52 C 456.24 55.43 484.16 55.49 512.09 55.49 C 513.60 55.76 514.71 54.54 515.87 53.81 C 538.96 36.91 562.14 20.15 585.22 3.24 Z" />
<path fill="#231f20" d=" M 168.36 8.60 C 179.71 6.41 190.64 12.83 197.99 21.02 C 209.16 33.64 215.13 51.53 211.38 68.19 C 209.51 76.16 204.21 83.93 196.12 86.48 C 188.74 89.03 180.60 86.92 174.15 82.95 C 157.99 72.65 148.76 52.96 149.79 34.02 C 150.46 23.08 156.73 10.90 168.36 8.60 Z" />
<path fill="#ffffff" d=" M 574.36 38.16 C 579.65 30.51 584.34 22.34 590.01 15.03 C 612.83 50.07 636.14 84.84 659.14 119.79 C 768.78 285.50 878.41 451.23 988.02 616.97 C 1002.22 638.17 1015.99 659.68 1030.42 680.71 C 998.77 681.15 966.85 680.76 935.02 680.87 C 849.05 680.87 762.92 680.88 677.02 680.87 C 620.13 680.92 563.07 680.87 506.01 680.87 C 387.42 680.84 267.84 680.95 149.23 680.82 C 290.97 466.61 432.63 252.37 574.36 38.16 Z" />
<path fill="#f5821f" d=" M 163.24 672.26 C 300.08 465.53 436.87 258.76 573.68 52.01 C 559.47 101.02 544.66 149.86 530.30 198.82 C 483.25 357.04 436.50 515.35 389.38 673.53 C 313.94 673.55 238.50 673.49 163.06 673.56 C 163.10 673.24 163.20 672.59 163.24 672.26 Z" />
<path fill="#2fb56a" d=" M 579.51 52.69 C 579.77 55.80 580.30 58.88 579.85 61.98 C 579.65 178.35 578.61 294.65 578.28 411.01 C 578.10 424.33 578.45 437.70 577.85 450.99 C 577.77 515.90 577.26 581.04 577.17 646.04 C 576.47 655.15 577.02 664.37 576.77 673.53 C 516.53 673.55 456.30 673.51 396.06 673.55 C 397.36 665.52 400.55 657.85 402.59 649.96 C 457.36 465.36 512.13 280.75 566.89 96.14 C 571.05 81.64 575.78 67.30 579.51 52.69 Z" />
<path fill="#c9252b" d=" M 586.38 52.63 C 628.82 259.58 671.47 466.52 713.78 673.52 C 670.24 673.55 626.71 673.51 583.18 673.53 C 583.20 620.02 583.64 566.51 583.77 513.00 C 583.68 488.62 584.37 464.35 584.27 439.97 C 584.41 389.31 584.78 338.66 584.85 287.99 C 585.03 284.00 584.46 279.95 585.18 276.01 C 585.26 227.33 585.55 178.64 585.75 129.96 C 585.77 104.16 585.87 78.39 586.38 52.63 Z" />
<path fill="#00adef" d=" M 599.23 52.73 C 616.17 85.57 633.79 118.09 650.97 150.81 C 743.27 325.02 835.47 499.26 927.80 673.45 C 865.43 673.58 803.06 673.52 740.70 673.48 C 694.47 471.30 648.25 269.12 602.02 66.94 C 601.12 62.20 599.44 57.58 599.23 52.73 Z" />
<path fill="#6850a1" d=" M 608.70 57.49 C 608.26 56.36 607.16 55.35 607.44 54.06 C 615.15 66.67 623.73 78.77 631.76 91.20 C 757.87 281.76 883.98 472.33 1010.09 662.89 C 1012.35 666.45 1014.87 669.84 1016.97 673.49 C 989.58 673.52 962.17 673.67 934.79 673.42 C 826.13 468.09 717.30 262.85 608.70 57.49 Z" />
<path fill="#ffdd00" d=" M 594.86 63.85 C 594.65 62.23 594.29 60.61 594.42 58.96 C 596.18 69.90 599.16 80.58 601.49 91.37 C 645.84 285.35 690.24 479.45 734.57 673.48 C 729.68 673.50 724.79 673.59 719.90 673.44 C 693.14 541.93 665.95 410.51 639.03 279.03 C 624.29 207.32 609.58 135.47 594.86 63.85 Z" />
<path fill="#ffffff" d=" M 439.24 64.87 C 463.83 64.65 488.43 64.73 513.03 64.72 C 520.69 70.25 528.28 75.95 535.58 81.96 C 526.59 95.47 517.60 108.98 508.74 122.57 C 507.35 121.88 506.08 121.02 504.95 119.98 C 483.13 101.52 460.82 83.60 439.24 64.87 Z" />
<path fill="#231f20" d=" M 153.77 93.23 C 157.79 94.22 161.07 97.24 164.33 99.71 C 174.20 108.13 180.49 120.93 180.62 133.92 C 176.58 142.49 172.79 151.19 168.78 159.78 C 165.17 168.23 160.80 176.49 157.60 185.04 C 190.85 197.73 224.08 210.52 257.22 223.49 C 269.80 227.96 282.10 233.20 294.71 237.61 C 287.58 237.57 280.59 235.81 273.51 235.11 C 266.27 234.25 259.13 232.68 251.86 232.10 C 215.10 226.73 178.28 221.80 141.60 215.97 C 132.07 214.39 123.04 208.08 119.98 198.66 C 115.32 184.11 119.35 168.62 123.77 154.52 C 131.10 132.92 141.80 112.60 153.77 93.23 Z" />
<path fill="#231f20" d=" M 198.45 169.05 C 204.58 147.29 212.29 125.90 217.04 103.76 C 220.06 109.86 221.75 116.52 224.35 122.80 C 230.89 139.94 239.22 156.42 249.42 171.68 C 250.56 172.25 251.77 171.28 252.86 170.95 C 274.45 161.87 295.95 152.58 317.54 143.49 C 325.12 140.50 332.50 136.75 340.27 134.36 C 331.88 142.28 323.63 150.37 314.68 157.67 C 303.94 166.76 292.54 175.02 281.19 183.31 C 273.47 189.39 265.53 195.30 257.01 200.22 C 250.69 203.26 243.37 202.35 236.90 200.30 C 221.00 194.59 208.24 182.50 198.45 169.05 Z" />
<path fill="#ffffff" d=" M 355.00 129.68 C 380.29 129.74 405.61 129.50 430.90 129.81 C 446.56 142.93 461.57 156.89 477.39 169.80 C 467.62 184.79 457.57 199.60 447.86 214.63 C 447.45 214.57 446.62 214.46 446.20 214.41 C 415.89 186.07 385.12 158.19 355.00 129.68 Z" />
<path fill="#ffffff" d=" M 271.88 195.25 C 290.25 195.02 308.62 195.22 326.99 195.12 C 333.01 194.61 339.06 194.93 345.10 194.84 C 346.23 194.76 347.17 195.15 347.94 196.01 C 370.00 219.15 392.25 242.09 414.35 265.20 C 402.89 282.44 391.50 299.72 380.07 316.97 C 365.72 301.28 351.80 285.18 337.56 269.39 C 315.76 244.60 293.50 220.18 271.88 195.25 Z" />
<path fill="#231f20" d=" M 156.61 235.06 C 173.80 236.63 190.91 239.06 208.06 240.98 C 221.03 242.24 233.92 244.27 246.75 246.41 C 258.89 249.12 271.12 251.72 282.74 256.26 C 290.25 259.21 297.77 262.70 303.82 268.16 C 308.18 272.14 311.44 277.88 310.59 283.97 C 309.48 293.03 307.47 301.98 304.90 310.75 C 298.41 333.54 288.89 355.31 279.52 377.04 C 275.76 385.73 271.81 394.36 268.40 403.21 C 269.47 390.90 271.24 378.65 272.78 366.40 C 275.78 340.25 279.14 314.07 282.27 287.90 C 256.16 284.87 230.08 281.59 204.00 278.40 C 202.63 277.99 201.21 277.80 199.79 277.74 C 199.52 277.97 199.00 278.42 198.73 278.64 C 190.48 294.46 182.09 310.22 173.85 326.05 C 163.62 345.35 153.56 364.74 143.32 384.03 C 134.35 401.16 125.44 418.33 116.29 435.36 C 110.54 447.16 103.70 458.45 98.34 470.41 C 99.10 462.52 101.97 454.95 103.58 447.18 C 105.56 439.51 107.30 431.77 109.42 424.14 C 113.84 405.79 118.51 387.48 123.08 369.15 C 124.61 361.91 127.28 354.94 128.46 347.63 C 130.79 338.13 133.19 328.66 135.56 319.17 C 136.45 315.67 137.28 312.15 138.21 308.66 C 144.31 284.11 150.40 259.57 156.61 235.06 Z" />
<path fill="#a7a9ac" d=" M 198.73 278.64 C 199.00 278.42 199.52 277.97 199.79 277.74 C 201.21 277.80 202.63 277.99 204.00 278.40 L 202.42 278.75 L 202.75 279.70 C 225.66 308.68 248.60 337.63 271.44 366.66 C 271.77 366.60 272.44 366.47 272.78 366.40 C 271.24 378.65 269.47 390.90 268.40 403.21 C 271.81 394.36 275.76 385.73 279.52 377.04 C 290.91 390.67 301.33 405.14 312.90 418.62 C 301.27 435.88 289.99 453.37 278.35 470.62 C 277.42 469.90 276.59 469.06 275.93 468.10 C 241.89 420.76 207.95 373.35 173.85 326.05 C 182.09 310.22 190.48 294.46 198.73 278.64 Z" />
<path fill="#ffffff" d=" M 202.42 278.75 L 204.00 278.40 C 230.08 281.59 256.16 284.87 282.27 287.90 C 279.14 314.07 275.78 340.25 272.78 366.40 C 272.44 366.47 271.77 366.60 271.44 366.66 C 248.60 337.63 225.66 308.68 202.75 279.70 L 202.42 278.75 Z" />
<path fill="#a7a9ac" d=" M 85.79 308.69 C 103.26 308.52 120.74 308.85 138.21 308.66 C 137.28 312.15 136.45 315.67 135.56 319.17 C 123.35 319.36 111.14 319.06 98.94 319.35 C 107.48 332.45 116.47 345.27 125.26 358.21 C 126.61 354.77 126.88 350.99 128.46 347.63 C 127.28 354.94 124.61 361.91 123.08 369.15 C 118.51 387.48 113.84 405.79 109.42 424.14 C 109.36 422.39 108.73 420.75 107.77 419.30 C 100.85 407.82 94.05 396.27 87.09 384.81 C 86.29 383.38 84.35 383.98 83.02 383.83 C 70.69 383.89 58.34 383.77 46.01 383.89 C 40.66 384.40 35.29 384.04 29.94 383.87 C 24.41 384.58 18.84 383.30 13.32 384.16 C 61.47 464.49 109.87 544.68 158.11 624.96 C 161.10 629.68 163.69 634.66 166.92 639.23 C 155.95 655.80 144.92 672.33 134.06 688.98 C 128.22 679.03 122.95 668.74 117.31 658.66 C 78.40 587.73 39.91 516.56 0.35 445.98 C 0.19 421.85 0.23 397.71 0.34 373.58 C 28.79 373.52 57.26 373.60 85.72 373.54 C 85.94 351.93 85.70 330.30 85.79 308.69 Z" />
<path fill="#ffffff" d=" M 279.52 377.04 C 288.89 355.31 298.41 333.54 304.90 310.75 C 319.49 328.73 334.05 346.75 348.36 364.95 C 336.52 382.83 324.64 400.68 312.90 418.62 C 301.33 405.14 290.91 390.67 279.52 377.04 Z" />
<path fill="#ffffff" d=" M 98.94 319.35 C 111.14 319.06 123.35 319.36 135.56 319.17 C 133.19 328.66 130.79 338.13 128.46 347.63 C 126.88 350.99 126.61 354.77 125.26 358.21 C 116.47 345.27 107.48 332.45 98.94 319.35 Z" />
<path fill="#ffffff" d=" M 143.32 384.03 C 153.56 364.74 163.62 345.35 173.85 326.05 C 207.95 373.35 241.89 420.76 275.93 468.10 C 276.59 469.06 277.42 469.90 278.35 470.62 C 266.00 489.67 253.25 508.48 240.86 527.52 C 238.33 524.79 236.46 521.56 234.34 518.54 C 205.20 475.72 176.06 432.90 146.92 390.09 C 145.63 388.13 144.05 386.29 143.32 384.03 Z" />
<path fill="#ffffff" d=" M 13.32 384.16 C 18.84 383.30 24.41 384.58 29.94 383.87 C 35.29 384.04 40.66 384.40 46.01 383.89 C 58.34 383.77 70.69 383.89 83.02 383.83 C 84.35 383.98 86.29 383.38 87.09 384.81 C 94.05 396.27 100.85 407.82 107.77 419.30 C 108.73 420.75 109.36 422.39 109.42 424.14 C 107.30 431.77 105.56 439.51 103.58 447.18 C 101.97 454.95 99.10 462.52 98.34 470.41 C 103.70 458.45 110.54 447.16 116.29 435.36 C 116.65 435.47 117.39 435.68 117.76 435.78 C 146.45 484.32 175.68 532.57 204.48 581.05 C 204.44 581.47 204.36 582.32 204.32 582.75 C 191.78 601.52 179.38 620.39 166.92 639.23 C 163.69 634.66 161.10 629.68 158.11 624.96 C 109.87 544.68 61.47 464.49 13.32 384.16 Z" />
<path fill="#a7a9ac" d=" M 116.29 435.36 C 125.44 418.33 134.35 401.16 143.32 384.03 C 144.05 386.29 145.63 388.13 146.92 390.09 C 176.06 432.90 205.20 475.72 234.34 518.54 C 236.46 521.56 238.33 524.79 240.86 527.52 C 228.61 545.88 216.42 564.29 204.32 582.75 C 204.36 582.32 204.44 581.47 204.48 581.05 C 175.68 532.57 146.45 484.32 117.76 435.78 C 117.39 435.68 116.65 435.47 116.29 435.36 Z" />
<path fill="#231f20" d=" M 702.45 710.67 C 707.47 708.10 714.09 710.34 716.76 715.24 C 719.50 719.49 718.47 725.45 714.87 728.89 C 710.43 733.41 702.01 732.83 698.32 727.62 C 693.81 722.32 696.06 713.43 702.45 710.67 Z" />
<path fill="#231f20" d=" M 100.07 818.67 C 105.17 783.29 111.10 748.05 116.68 712.74 C 120.58 712.69 124.48 712.81 128.38 712.68 C 131.17 717.06 132.82 722.23 135.22 726.90 C 140.98 739.74 146.86 752.50 152.65 765.32 C 156.39 773.40 160.11 781.49 162.77 790.01 C 173.60 764.41 185.14 738.59 196.01 712.81 C 200.13 712.64 204.27 712.78 208.40 712.73 C 213.91 748.06 219.73 783.27 224.90 818.66 C 217.80 818.66 210.70 818.72 203.59 818.63 C 200.97 799.41 198.14 780.19 195.62 760.96 C 195.03 758.30 195.75 755.34 194.62 752.88 C 192.12 763.32 186.72 773.09 182.58 783.10 C 177.49 794.93 172.05 806.65 167.14 818.55 C 163.31 818.82 159.45 818.59 155.62 818.68 C 149.16 804.69 142.86 790.66 136.47 776.64 C 132.97 768.92 129.10 761.22 126.94 753.05 C 126.50 765.17 123.85 777.01 122.39 789.00 C 120.95 798.84 119.30 808.66 118.12 818.56 C 112.11 818.81 106.09 818.61 100.07 818.67 Z" />
<path fill="#231f20" d=" M 300.20 712.67 C 314.45 712.68 328.71 712.65 342.96 712.69 C 351.83 713.09 361.32 715.43 367.61 722.16 C 372.60 727.35 374.92 734.68 374.60 741.80 C 378.51 741.79 382.43 741.84 386.35 741.76 C 388.73 744.92 389.60 749.23 391.41 752.84 C 395.84 764.14 401.14 775.13 404.74 786.72 C 411.38 772.22 417.61 756.78 423.91 741.84 C 429.24 741.75 434.58 741.82 439.93 741.81 C 439.24 745.56 437.00 748.83 435.64 752.38 C 426.55 772.80 417.42 793.17 408.31 813.58 C 403.81 823.39 399.84 834.11 391.46 841.37 C 383.80 847.83 373.39 849.04 363.73 848.30 C 363.68 846.38 363.69 844.47 363.72 842.58 C 369.83 842.01 376.08 839.92 380.24 835.19 C 386.64 828.05 390.16 818.97 394.31 810.47 C 395.75 808.23 393.65 806.04 392.95 803.98 C 385.69 787.65 378.37 771.37 371.15 755.03 C 368.65 758.11 366.22 761.50 362.87 763.85 C 351.10 772.48 335.58 773.92 321.55 771.62 C 321.48 787.30 321.55 802.97 321.51 818.65 C 314.40 818.69 307.29 818.66 300.18 818.67 C 300.16 783.34 300.12 748.00 300.20 712.67 Z" />
<path fill="#231f20" d=" M 783.73 712.70 C 790.40 712.68 797.09 712.61 803.76 712.73 C 803.83 747.97 803.72 783.21 803.82 818.45 C 797.23 818.94 790.39 818.57 783.71 818.64 C 783.29 816.24 784.46 813.07 783.19 811.09 C 773.63 823.15 754.48 825.01 742.29 815.94 C 732.35 808.65 728.35 796.00 727.75 784.22 C 727.48 777.08 728.33 769.88 730.53 763.09 C 733.44 754.12 739.32 745.62 748.05 741.48 C 754.52 738.44 762.08 737.75 769.01 739.54 C 774.98 741.07 779.86 745.20 783.64 749.94 C 783.81 737.52 783.64 725.11 783.73 712.70 Z" />
<path fill="#ffffff" d=" M 321.47 727.50 C 328.41 726.97 336.04 726.64 342.63 729.51 C 349.61 732.44 353.40 740.72 351.82 747.97 C 351.09 754.43 345.74 759.42 339.90 761.65 C 334.16 764.23 327.76 764.80 321.52 764.59 C 321.49 752.22 321.59 739.86 321.47 727.50 Z" />
<path fill="#231f20" d=" M 507.40 742.49 C 514.28 738.85 522.31 738.22 529.98 738.72 C 537.31 739.35 544.81 741.56 550.44 746.54 C 556.36 751.93 558.82 760.13 558.78 767.96 C 559.10 784.83 558.80 801.68 558.86 818.67 C 552.43 818.60 545.99 818.82 539.58 818.56 C 539.58 815.72 539.74 812.87 539.48 810.05 C 533.32 816.91 524.24 821.04 514.99 820.79 C 506.52 821.19 497.59 817.40 493.02 810.05 C 488.63 803.34 488.17 794.55 490.59 787.05 C 493.50 778.48 501.42 772.29 510.06 770.25 C 519.75 767.25 530.08 768.92 539.57 771.86 C 539.50 765.75 538.31 758.98 533.42 754.81 C 525.77 748.76 514.19 748.94 506.10 754.03 C 502.86 755.91 500.91 759.24 498.21 761.60 C 496.66 760.65 495.01 759.92 493.41 759.09 C 496.32 752.37 500.64 745.83 507.40 742.49 Z" />
<path fill="#231f20" d=" M 590.40 751.11 C 598.35 740.27 614.05 736.58 626.18 742.04 C 630.87 744.02 634.31 748.18 635.90 752.97 C 642.68 742.98 655.63 737.41 667.46 740.36 C 674.52 741.64 681.07 746.92 682.77 754.06 C 684.13 757.19 683.41 760.76 684.14 763.99 C 684.19 777.37 684.05 790.78 684.03 803.95 C 683.14 808.85 684.92 813.89 683.71 818.69 C 677.10 818.41 670.25 819.15 663.80 818.32 C 663.85 799.90 663.88 781.48 663.78 763.06 C 663.86 758.33 660.66 753.52 655.94 752.44 C 648.24 750.21 639.87 755.84 637.20 763.04 C 637.17 781.51 637.15 799.99 637.21 818.47 C 630.57 818.91 623.86 818.60 617.20 818.62 C 616.39 810.32 617.15 801.41 616.86 793.02 C 616.90 783.07 616.91 772.99 616.80 762.94 C 616.57 757.34 611.97 752.24 606.27 752.01 C 599.41 751.37 592.72 756.80 590.32 763.03 C 590.29 781.53 590.27 800.04 590.33 818.55 C 583.65 818.84 576.94 818.59 570.25 818.67 C 570.21 793.78 570.25 768.89 570.23 744.00 C 570.32 743.44 570.48 742.31 570.56 741.75 C 577.12 741.88 583.69 741.74 590.25 741.82 C 590.39 744.91 590.16 748.02 590.40 751.11 Z" />
<path fill="#231f20" d=" M 845.54 749.60 C 854.05 739.13 869.66 735.63 881.90 741.09 C 886.11 743.01 889.61 746.23 892.39 749.90 C 892.64 747.16 892.41 744.41 892.53 741.68 C 899.20 741.66 905.88 741.68 912.55 741.66 C 912.65 758.77 912.57 775.89 912.60 793.00 C 912.46 801.65 912.95 810.35 912.07 818.97 C 911.14 827.28 907.66 835.80 900.71 840.87 C 895.25 845.02 888.61 847.22 881.95 848.40 C 873.10 849.37 863.79 849.27 855.53 845.67 C 847.08 842.44 839.77 834.43 839.36 825.22 C 840.98 824.81 842.33 823.30 844.05 823.51 C 849.02 833.21 860.40 838.63 871.03 836.97 C 878.18 836.24 885.12 832.25 888.74 825.92 C 892.61 819.20 892.80 811.15 892.37 803.60 C 884.62 813.99 869.66 818.55 857.58 813.66 C 848.47 810.25 841.76 802.17 838.69 793.09 C 834.34 778.67 835.81 761.59 845.54 749.60 Z" />
<path fill="#231f20" d=" M 951.42 739.71 C 965.51 736.53 981.56 740.73 991.01 752.03 C 1000.28 763.25 1002.00 779.11 998.49 792.87 C 995.50 805.52 985.66 816.62 972.91 819.98 C 964.00 822.41 954.20 822.51 945.43 819.50 C 932.11 815.24 923.07 802.26 921.47 788.70 C 919.69 776.36 921.61 762.73 929.67 752.76 C 935.09 746.01 943.06 741.61 951.42 739.71 Z" />
<path fill="#231f20" d=" M 476.01 740.98 C 480.67 739.54 485.97 739.05 490.64 740.19 C 490.82 745.91 490.67 751.66 490.71 757.39 C 487.20 755.77 483.61 754.34 479.73 753.94 C 473.59 753.28 467.23 755.47 462.37 759.21 C 462.23 779.00 462.32 798.80 462.32 818.60 C 455.65 818.76 448.97 818.63 442.30 818.66 C 442.26 794.43 442.29 770.20 442.28 745.98 C 442.38 744.57 442.03 743.08 442.55 741.76 C 449.11 741.87 455.68 741.75 462.26 741.81 C 462.38 744.91 462.21 748.01 462.37 751.11 C 465.96 746.70 470.40 742.58 476.01 740.98 Z" />
<path fill="#231f20" d=" M 219.41 741.83 C 226.63 741.80 233.85 741.76 241.07 741.85 C 246.77 756.91 254.02 771.39 258.81 786.77 C 265.06 773.65 270.32 759.65 276.32 746.24 C 277.08 744.71 277.20 742.75 278.68 741.75 C 283.76 741.87 288.85 741.76 293.94 741.81 C 292.74 747.26 289.58 752.17 287.55 757.39 C 277.74 779.29 268.04 801.23 258.16 823.10 C 254.45 830.88 250.00 838.90 242.48 843.58 C 235.20 848.23 226.25 848.89 217.84 848.26 C 217.79 846.43 217.84 844.60 217.81 842.79 C 223.30 841.77 229.18 840.47 233.31 836.32 C 240.39 829.06 244.13 819.40 248.46 810.42 C 249.31 808.96 248.73 807.26 247.95 805.93 C 238.46 784.55 228.86 763.22 219.41 741.83 Z" />
<path fill="#231f20" d=" M 697.29 756.99 C 697.44 751.92 696.96 746.78 697.52 741.76 C 704.09 741.86 710.66 741.75 717.23 741.82 C 717.34 767.40 717.21 792.99 717.29 818.57 C 710.63 818.80 703.96 818.62 697.30 818.66 C 697.27 798.10 697.29 777.55 697.29 756.99 Z" />
<path fill="#231f20" d=" M 997.08 741.82 C 1004.11 741.78 1011.15 741.80 1018.19 741.81 C 1024.98 757.11 1031.69 772.50 1038.07 787.97 C 1043.88 772.41 1050.58 757.20 1056.87 741.83 C 1062.21 742.10 1067.81 741.12 1073.00 742.36 L 1073.00 742.41 C 1061.04 767.84 1049.95 793.72 1038.19 819.25 C 1036.13 819.25 1034.08 819.31 1032.04 819.20 C 1023.55 800.37 1014.87 781.63 1006.33 762.82 C 1003.32 755.80 999.54 749.03 997.08 741.82 Z" />
<path fill="#ffffff" d=" M 763.42 751.61 C 769.24 750.23 775.90 751.46 780.03 756.04 C 781.67 758.01 784.09 760.11 783.71 762.94 C 783.68 775.52 783.75 788.11 783.68 800.70 C 779.92 806.76 772.35 810.71 765.11 809.42 C 758.14 808.51 753.08 802.44 750.96 796.08 C 748.33 788.74 748.07 780.75 748.73 773.02 C 749.59 764.15 754.07 754.15 763.42 751.61 Z" />
<path fill="#ffffff" d=" M 864.13 756.07 C 868.40 751.08 875.77 749.28 881.93 751.45 C 886.60 752.80 889.85 756.74 892.47 760.63 C 892.54 771.97 892.51 783.31 892.48 794.65 C 888.57 799.62 882.54 803.52 876.01 803.48 C 870.72 803.63 865.72 800.66 862.71 796.41 C 858.42 790.21 857.36 782.42 857.72 775.04 C 858.14 768.34 859.67 761.34 864.13 756.07 Z" />
<path fill="#ffffff" d=" M 955.55 751.72 C 960.56 750.45 966.38 750.96 970.42 754.46 C 975.74 759.07 977.72 766.30 978.54 773.04 C 979.18 781.69 979.35 790.83 975.62 798.86 C 973.00 805.36 966.36 810.45 959.13 809.57 C 951.24 809.29 945.79 802.17 943.96 795.07 C 941.44 785.64 941.48 775.45 943.73 765.97 C 945.51 759.91 949.20 753.74 955.55 751.72 Z" />
<path fill="#ffffff" d=" M 510.19 795.04 C 509.69 788.84 514.18 783.10 520.10 781.54 C 526.54 779.48 533.59 780.80 539.63 783.52 C 539.53 790.06 539.74 796.60 539.52 803.14 C 534.10 806.73 527.66 809.45 521.02 808.36 C 514.52 807.74 509.76 801.42 510.19 795.04 Z" />
<path fill="#231f20" d=" M 819.45 797.75 C 825.02 795.86 831.61 798.64 834.03 804.02 C 837.88 811.06 832.04 820.85 824.01 820.86 C 817.38 821.66 811.14 815.57 811.41 809.01 C 811.19 804.00 814.91 799.49 819.45 797.75 Z" />
<path fill="#231f20" d=" M 101.70 867.85 C 106.07 860.99 115.51 859.02 122.89 861.46 C 128.40 863.06 132.47 868.38 132.85 874.06 C 133.18 875.27 131.73 875.57 130.92 875.25 C 128.63 869.35 122.56 864.67 116.03 865.57 C 109.96 865.71 104.67 872.18 107.07 878.10 C 108.76 883.08 114.61 883.95 119.00 885.28 C 124.29 886.22 129.89 888.27 132.89 893.05 C 136.34 898.99 135.08 907.33 130.09 912.09 C 125.73 916.66 119.03 917.85 112.96 917.33 C 104.78 917.07 96.95 910.13 97.44 901.62 L 99.27 901.28 C 101.29 906.32 105.62 910.72 111.06 911.81 C 118.21 914.41 128.26 909.49 127.43 901.04 C 127.43 895.43 121.97 892.47 117.17 891.54 C 112.50 890.30 107.39 889.48 103.71 886.08 C 98.53 881.68 98.12 873.36 101.70 867.85 Z" />
<path fill="#231f20" d=" M 265.72 873.99 C 266.44 867.96 271.19 862.70 277.09 861.32 C 284.90 858.77 295.10 861.63 298.19 869.87 C 298.42 871.96 300.77 874.57 297.86 875.67 C 295.38 872.05 293.04 867.70 288.49 866.37 C 283.65 864.44 277.05 865.57 274.19 870.26 C 271.64 874.09 272.60 879.91 276.73 882.27 C 281.65 885.05 287.54 885.16 292.65 887.50 C 297.62 889.56 301.04 894.56 301.17 899.93 C 301.32 905.70 298.39 911.49 293.39 914.49 C 287.98 917.78 281.10 918.14 275.08 916.52 C 268.45 914.95 263.59 908.43 263.55 901.68 C 264.13 901.67 265.31 901.66 265.90 901.65 C 268.97 911.50 283.09 916.09 290.84 908.91 C 294.84 904.94 294.74 897.24 289.83 894.05 C 283.82 890.45 276.00 891.07 270.44 886.50 C 266.69 883.61 265.13 878.57 265.72 873.99 Z" />
<path fill="#231f20" d=" M 382.86 860.80 C 390.20 859.79 398.23 860.96 404.01 865.91 C 414.44 874.77 416.00 890.81 410.91 902.90 C 407.09 912.26 397.04 918.20 387.05 917.50 C 377.40 917.51 368.05 911.38 364.49 902.35 C 359.91 891.10 361.25 876.89 369.67 867.72 C 373.17 864.00 377.92 861.81 382.86 860.80 Z" />
<path fill="#231f20" d=" M 985.01 860.97 C 993.45 859.34 1002.97 861.52 1008.88 868.06 C 1016.92 877.13 1018.14 890.80 1013.89 901.84 C 1011.48 908.24 1006.34 913.62 999.86 915.95 C 992.88 918.37 984.79 918.09 978.20 914.63 C 971.36 911.22 966.74 904.23 965.34 896.84 C 963.40 888.10 964.67 878.43 969.65 870.88 C 973.12 865.63 978.84 862.04 985.01 860.97 Z" />
<path fill="#231f20" d=" M 134.34 862.19 C 147.94 862.23 161.54 862.05 175.13 862.28 C 174.97 863.73 175.54 865.39 174.94 866.74 C 169.51 867.23 163.61 866.24 158.47 867.23 C 158.35 883.41 158.43 899.60 158.42 915.78 C 155.90 915.77 153.37 915.98 150.86 915.66 C 150.75 899.29 151.17 883.06 150.73 866.84 C 145.27 866.83 139.81 866.86 134.34 866.82 C 134.33 865.27 134.33 863.72 134.34 862.19 Z" />
<path fill="#231f20" d=" M 180.48 862.24 C 180.78 862.13 181.40 861.92 181.71 861.81 C 191.89 861.89 202.07 861.87 212.26 861.82 C 212.52 862.02 213.03 862.42 213.29 862.62 C 213.28 863.59 213.26 865.52 213.26 866.49 C 204.81 867.05 196.23 866.53 187.74 866.75 C 187.69 872.99 187.74 879.23 187.72 885.47 C 195.21 885.63 202.70 885.41 210.20 885.58 C 210.21 887.10 210.20 888.62 210.16 890.15 C 202.68 890.24 195.20 890.11 187.73 890.22 C 187.73 897.24 187.70 904.26 187.74 911.28 C 197.35 911.34 206.96 911.26 216.57 911.32 C 216.59 912.82 216.58 914.32 216.53 915.84 C 204.52 915.79 192.50 915.86 180.49 915.80 C 180.48 897.95 180.51 880.09 180.48 862.24 Z" />
<path fill="#231f20" d=" M 224.68 862.21 C 231.47 862.16 238.26 862.14 245.05 862.22 C 248.82 862.21 252.85 862.89 255.78 865.46 C 259.95 868.85 261.24 874.96 259.63 879.95 C 258.39 885.40 253.29 889.17 248.08 890.47 C 242.93 892.08 237.45 891.52 232.13 891.49 C 231.99 899.54 232.42 907.77 231.92 915.71 C 229.52 915.93 227.10 915.77 224.69 915.80 C 224.65 897.94 224.68 880.07 224.68 862.21 Z" />
<path fill="#231f20" d=" M 324.30 862.19 C 337.92 862.22 351.55 862.06 365.17 862.27 C 365.18 863.75 365.18 865.24 365.17 866.74 C 359.62 867.24 353.84 866.23 348.42 867.26 C 348.42 883.44 348.43 899.62 348.41 915.81 C 345.99 915.81 343.57 915.83 341.15 915.81 C 341.16 900.54 341.09 885.10 341.14 869.98 C 341.26 868.83 341.04 867.76 340.46 866.77 C 335.08 866.91 329.69 866.82 324.30 866.82 C 324.28 865.27 324.27 863.72 324.30 862.19 Z" />
<path fill="#231f20" d=" M 436.05 915.81 C 444.01 897.81 452.43 879.91 460.87 862.14 C 461.47 862.26 462.67 862.49 463.27 862.61 C 471.17 880.41 479.53 898.05 487.57 915.77 C 484.94 915.73 482.24 916.04 479.66 915.65 C 477.60 910.58 475.09 905.68 473.11 900.59 C 465.07 900.58 456.94 900.24 448.96 900.76 C 446.98 905.87 444.55 910.81 442.32 915.83 C 440.23 915.80 438.13 915.82 436.05 915.81 Z" />
<path fill="#231f20" d=" M 514.65 862.19 C 517.04 862.16 519.44 862.16 521.85 862.18 C 522.08 866.77 521.43 871.51 522.17 876.00 C 521.44 879.00 522.06 882.25 521.86 885.35 C 531.40 885.56 540.95 885.39 550.49 885.44 C 550.58 877.69 550.47 869.93 550.55 862.18 C 552.94 862.18 555.34 862.15 557.75 862.19 C 557.76 880.06 557.76 897.93 557.75 915.81 C 555.34 915.83 552.93 915.81 550.53 915.81 C 550.50 907.29 550.54 898.77 550.52 890.24 C 541.06 890.26 531.59 890.10 522.13 890.33 C 521.60 891.50 521.62 892.73 522.20 894.01 C 521.39 901.14 522.10 908.57 521.85 915.82 C 519.45 915.83 517.05 915.81 514.66 915.81 C 514.62 897.94 514.63 880.07 514.65 862.19 Z" />
<path fill="#231f20" d=" M 570.34 861.86 C 580.97 861.81 591.61 861.91 602.24 861.82 C 603.12 863.17 602.44 865.11 602.64 866.71 C 594.24 866.73 585.85 866.73 577.46 866.71 C 577.31 872.97 577.41 879.25 577.41 885.52 C 584.85 885.65 592.40 885.28 599.78 885.70 C 599.78 887.18 599.75 888.67 599.68 890.16 C 592.25 890.21 584.82 890.14 577.39 890.20 C 577.42 897.23 577.32 904.27 577.44 911.31 C 587.04 911.34 596.65 911.22 606.25 911.37 C 606.24 912.38 606.24 914.42 606.24 915.43 C 608.50 915.10 608.18 912.63 609.26 911.22 C 616.77 894.87 624.42 878.58 631.91 862.22 C 632.51 862.24 633.70 862.26 634.30 862.27 C 642.44 880.09 650.59 897.92 658.84 915.69 C 656.20 915.92 653.54 915.84 650.90 915.73 C 648.87 910.58 646.41 905.59 644.20 900.52 C 636.33 900.48 628.47 900.57 620.62 900.48 C 618.14 905.40 616.02 910.53 613.80 915.59 C 610.99 916.63 607.96 914.84 605.37 915.83 C 593.66 915.80 581.95 915.84 570.24 915.81 C 570.30 897.83 570.10 879.84 570.34 861.86 Z" />
<path fill="#231f20" d=" M 664.32 866.01 C 664.55 864.65 663.83 862.92 664.75 861.81 C 666.98 862.14 669.60 861.35 671.63 862.17 C 671.80 878.52 671.60 894.87 671.73 911.22 C 680.40 911.27 689.07 911.22 697.75 911.25 C 697.76 912.75 697.76 914.28 697.75 915.81 C 686.61 915.82 675.47 915.83 664.33 915.80 C 664.32 899.20 664.33 882.60 664.32 866.01 Z" />
<path fill="#231f20" d=" M 687.84 862.30 C 701.48 862.03 715.13 862.24 728.77 862.19 C 728.78 863.72 728.78 865.27 728.77 866.83 C 723.28 866.85 717.79 866.83 712.31 866.83 C 711.96 883.10 712.24 899.41 712.17 915.69 C 709.68 915.92 707.18 915.82 704.70 915.76 C 704.73 900.82 704.70 885.89 704.71 870.95 C 704.49 869.61 705.16 867.90 704.28 866.80 C 698.87 866.82 693.45 866.94 688.05 866.74 C 687.45 865.38 688.03 863.74 687.84 862.30 Z" />
<path fill="#231f20" d=" M 734.29 862.19 C 736.71 862.16 739.14 862.16 741.57 862.20 C 741.58 869.94 741.55 877.68 741.58 885.43 C 751.12 885.42 760.66 885.51 770.20 885.39 C 770.22 877.65 770.19 869.92 770.22 862.19 C 772.62 862.16 775.02 862.16 777.43 862.20 C 777.42 880.07 777.46 897.94 777.41 915.81 C 775.01 915.81 772.61 915.83 770.22 915.81 C 770.23 907.38 770.15 898.96 770.26 890.54 C 760.82 889.89 751.06 890.26 741.53 890.35 C 741.62 898.83 741.55 907.32 741.57 915.80 C 739.14 915.83 736.71 915.83 734.29 915.81 C 734.28 897.93 734.28 880.06 734.29 862.19 Z" />
<path fill="#231f20" d=" M 791.69 861.86 C 794.17 862.26 797.19 860.97 799.30 862.56 C 799.12 880.44 799.31 898.33 799.20 916.22 C 796.68 916.27 794.17 916.24 791.67 916.24 C 791.62 898.11 791.57 879.98 791.69 861.86 Z" />
<path fill="#231f20" d=" M 813.47 862.22 C 823.92 861.36 834.66 862.12 845.23 861.83 C 845.47 862.05 845.96 862.49 846.21 862.71 C 846.21 863.62 846.20 865.46 846.20 866.38 C 837.86 867.20 829.22 866.45 820.77 866.75 C 820.72 872.99 820.76 879.23 820.75 885.47 C 828.23 885.64 835.72 885.41 843.21 885.58 C 843.21 886.91 843.22 888.25 843.24 889.60 L 842.31 890.23 C 835.12 890.15 827.94 890.14 820.76 890.23 C 820.75 897.24 820.72 904.26 820.77 911.28 C 830.38 911.35 839.99 911.27 849.61 911.32 C 849.62 912.80 849.62 914.30 849.61 915.81 C 837.57 915.83 825.52 915.84 813.48 915.80 C 813.47 897.94 813.48 880.08 813.47 862.22 Z" />
<path fill="#231f20" d=" M 855.45 862.20 C 864.37 862.65 873.65 860.93 882.29 863.68 C 887.09 865.67 890.16 870.84 889.81 876.00 C 890.13 882.16 885.74 887.67 880.09 889.71 C 885.22 898.33 889.99 907.17 895.30 915.68 C 892.53 915.85 889.73 915.95 886.98 915.67 C 882.57 907.41 877.61 899.46 873.10 891.25 C 869.64 891.61 866.16 891.61 862.70 891.51 C 862.69 899.61 862.70 907.70 862.69 915.80 C 860.27 915.83 857.85 915.83 855.45 915.80 C 855.45 897.93 855.44 880.06 855.45 862.20 Z" />
<path fill="#231f20" d=" M 917.55 862.25 C 920.17 862.17 922.82 862.10 925.45 862.23 C 930.82 876.06 937.05 889.63 941.67 903.71 L 941.99 903.66 C 947.58 889.89 953.95 876.05 959.80 862.21 C 961.86 862.15 963.92 862.16 966.01 862.20 C 959.15 879.10 951.52 895.73 944.35 912.53 C 941.72 918.38 939.70 925.14 934.04 928.85 C 929.65 932.14 923.89 930.75 918.82 930.90 L 918.59 929.69 C 925.32 929.49 931.71 925.72 934.66 919.58 C 935.84 916.66 938.88 913.73 937.47 910.42 C 930.75 894.39 924.38 878.22 917.55 862.25 Z" />
<path fill="#231f20" d=" M 1021.70 861.87 C 1023.98 862.05 1026.57 861.45 1028.70 862.12 C 1028.95 874.75 1028.62 887.41 1028.86 900.04 C 1029.49 902.40 1029.21 905.08 1030.81 907.14 C 1034.79 912.72 1042.98 913.62 1048.85 910.69 C 1052.42 908.98 1056.27 906.75 1058.19 903.17 C 1058.19 889.35 1058.01 875.68 1058.28 861.86 C 1060.59 862.17 1063.26 861.14 1065.33 862.45 C 1065.22 880.21 1065.29 897.98 1065.29 915.75 C 1062.91 915.88 1060.53 915.79 1058.17 915.82 C 1058.10 913.20 1058.23 910.60 1058.10 908.01 C 1054.76 912.30 1050.19 916.08 1044.66 916.98 C 1038.39 918.12 1031.19 917.30 1026.30 912.87 C 1022.99 909.90 1021.55 905.35 1021.64 901.02 C 1021.68 887.97 1021.56 874.91 1021.70 861.87 Z" />
<path fill="#ffffff" d=" M 383.59 865.72 C 389.30 864.35 395.77 865.77 399.73 870.27 C 404.35 875.31 406.12 882.34 405.85 889.05 C 406.04 896.13 404.10 903.78 398.71 908.70 C 393.14 913.97 383.71 914.04 377.82 909.25 C 373.03 905.54 370.73 899.50 369.95 893.69 C 369.00 886.18 370.17 878.02 374.78 871.82 C 376.91 868.84 380.13 866.79 383.59 865.72 Z" />
<path fill="#ffffff" d=" M 985.62 865.87 C 991.75 864.12 998.91 865.86 1002.93 870.99 C 1008.64 878.18 1009.55 888.17 1007.62 896.89 C 1006.30 903.73 1001.72 910.63 994.59 912.32 C 989.98 913.26 984.96 912.62 981.11 909.83 C 976.27 906.46 973.68 900.76 972.66 895.13 C 971.94 889.14 971.91 882.78 974.34 877.17 C 976.21 872.02 980.30 867.53 985.62 865.87 Z" />
<path fill="#ffffff" d=" M 232.17 866.51 C 237.39 866.76 242.98 865.74 247.87 867.93 C 253.30 870.71 254.19 878.78 250.17 883.14 C 245.76 888.19 238.43 888.76 232.16 888.51 C 232.13 881.18 232.10 873.84 232.17 866.51 Z" />
<path fill="#ffffff" d=" M 862.71 866.74 C 868.16 867.03 874.40 865.55 879.06 869.11 C 883.73 872.69 883.38 880.32 879.00 883.99 C 874.58 887.84 868.37 888.75 862.70 888.63 C 862.71 881.33 862.67 874.03 862.71 866.74 Z" />
<path fill="#ffffff" d=" M 451.29 895.58 C 454.85 888.41 458.23 881.03 461.22 873.63 C 464.00 881.09 467.41 888.35 470.84 895.54 C 464.40 896.03 457.75 895.92 451.29 895.58 Z" />
<path fill="#ffffff" d=" M 622.57 895.75 C 626.11 888.58 629.09 881.06 632.70 873.96 C 635.17 881.42 638.98 888.36 642.00 895.64 C 635.55 896.00 629.04 895.77 622.57 895.75 Z" />
</svg>
